<svg width="17" height="18" viewBox="0 0 17 18" fill="none" xmlns="http://www.w3.org/2000/svg">
<path d="M16.7146 15.9267L12.7553 11.619C13.7972 10.3267 14.3182 8.819 14.3182 7.09592C14.3182 3.32669 11.2966 0.203613 7.6499 0.203613C4.00319 0.203613 0.877441 3.32669 0.877441 7.20361C0.877441 11.0805 3.899 14.2036 7.6499 14.2036C9.00439 14.2036 10.3589 13.7728 11.505 12.9113L15.4643 17.219C15.6727 17.4344 15.881 17.5421 16.0894 17.5421C16.2978 17.5421 16.5062 17.4344 16.7146 17.3267C17.0271 16.8959 17.0271 16.2498 16.7146 15.9267ZM7.6499 2.03438C10.3589 2.03438 12.6511 4.29592 12.6511 7.20361C12.6511 10.1113 10.4631 12.3728 7.6499 12.3728C4.83672 12.3728 2.6487 10.1113 2.6487 7.20361C2.6487 4.29592 4.83672 2.03438 7.6499 2.03438Z" fill="#666666"/>
</svg>
