<svg width="24" height="24" viewBox="0 0 24 24" fill="none" xmlns="http://www.w3.org/2000/svg">
<path d="M12 0.315918C5.37143 0.315918 0 5.61667 0 12.158C0 18.6994 5.37143 24.0001 12 24.0001C18.6286 24.0001 24 18.6994 24 12.158C24 5.61667 18.6286 0.315918 12 0.315918ZM12 23.4362C5.71429 23.4362 0.571429 18.361 0.571429 12.158C0.571429 5.95502 5.71429 0.879828 12 0.879828C18.2857 0.879828 23.4286 5.95502 23.4286 12.158C23.4286 18.4174 18.2857 23.4362 12 23.4362Z" fill="#34495E"/>
<g clip-path="url(#clip0)">
<circle cx="12" cy="12" r="10" fill="#34495E"/>
<path d="M17.0335 10.5007C16.9746 10.4477 16.9158 10.4477 16.8569 10.4477H15.3847V6.2118C15.3847 6.1059 15.2669 6 15.1491 6H10.7324C10.6146 6 10.4968 6.1059 10.4968 6.2118V8.17092H9.31903C9.20125 8.17092 9.08346 8.27682 9.08346 8.38272C9.08346 8.48861 9.20125 8.59451 9.31903 8.59451H10.6735H11.3213V10.4477H9.43678H8.14124V8.59451H8.49456C8.61234 8.59451 8.73013 8.48861 8.73013 8.38272C8.73013 8.27682 8.61234 8.17092 8.49456 8.17092H7.96454C7.90565 8.17092 7.90567 8.17092 7.90567 8.17092C7.84678 8.22387 7.78792 8.27682 7.78792 8.32977V10.3948H7.0812L6.37456 7.80027H4.90232C4.78454 7.80027 4.66675 7.90617 4.66675 8.01207C4.66675 8.11797 4.78454 8.22387 4.90232 8.22387H6.19786L8.25899 15.9015C7.96454 16.0604 7.72904 16.3781 7.72904 16.6957C7.72904 17.1723 8.14125 17.5959 8.67126 17.6488C8.55348 17.7547 8.55344 17.9136 8.55344 18.0724C8.55344 18.496 8.96566 18.8667 9.43678 18.8667C9.9079 18.8667 10.3201 18.496 10.3201 18.0724C10.3201 17.9136 10.2613 17.7547 10.2024 17.6488H13.9124C13.7947 17.7547 13.7946 17.9136 13.7946 18.0724C13.7946 18.496 14.2068 18.8667 14.678 18.8667C15.1491 18.8667 15.5613 18.496 15.5613 18.0724C15.5613 17.9136 15.5024 17.7547 15.4435 17.6488H16.2091C16.3268 17.6488 16.4446 17.5429 16.4446 17.437C16.4446 17.3311 16.3268 17.2252 16.2091 17.2252H8.73013C8.3768 17.2252 8.08237 16.9605 8.08237 16.6428C8.08237 16.3251 8.3768 16.0604 8.73013 16.0604H8.78901L16.2091 15.8486C16.3268 15.8486 16.3858 15.7956 16.3858 15.6897L16.5035 14.9484C16.5035 14.8955 16.5035 14.8425 16.4446 14.7896C16.3857 14.7366 16.3858 14.7366 16.3269 14.7366C16.3269 14.7366 16.3269 14.7366 16.268 14.7366C16.1502 14.7366 16.0913 14.7896 16.0913 14.8955L15.9736 15.4779L14.5602 15.5309L14.7368 13.3599H16.3269L16.0913 14.1012C16.0913 14.1542 16.0913 14.2071 16.1502 14.2601C16.2091 14.313 16.2091 14.313 16.268 14.313C16.268 14.313 16.268 14.313 16.3269 14.313C16.4447 14.313 16.5035 14.2601 16.5035 14.1542L17.0924 10.6595C17.0924 10.6066 17.0335 10.5536 17.0335 10.5007ZM14.5013 17.49C14.7958 17.49 14.9724 17.7018 14.9724 17.9136C14.9724 18.1783 14.7369 18.3372 14.5013 18.3372C14.2069 18.3372 14.0302 18.1254 14.0302 17.9136C14.0302 17.7018 14.2658 17.49 14.5013 17.49ZM9.26015 17.49C9.5546 17.49 9.73123 17.7018 9.73123 17.9136C9.73123 18.1783 9.49571 18.3372 9.26015 18.3372C8.96571 18.3372 8.78901 18.1254 8.78901 17.9136C8.78901 17.7018 9.0246 17.49 9.26015 17.49ZM7.19902 10.8184H9.3779L9.61348 12.9364H7.78792L7.19902 10.8184ZM8.49456 15.6368L7.84679 13.307H9.61348L9.84905 15.6368H8.49456ZM9.79017 10.8184H11.9691V12.9364H10.0257L9.79017 10.8184ZM11.9691 15.5309L10.3201 15.5838L10.0846 13.307H12.0279V15.5309H11.9691ZM14.0302 15.4779L12.3813 15.5309V13.307H14.2069L14.0302 15.4779ZM14.2658 12.8834H12.3813V10.7654H14.4424L14.2658 12.8834ZM12.1458 10.4477H11.7924V8.38272C11.7924 8.38272 11.7924 8.38272 11.7924 8.32977C11.7924 8.27682 11.7335 8.22387 11.6746 8.17092C11.6157 8.17092 11.6157 8.17092 11.5569 8.17092H10.909V6.42359H14.9135V10.4477H12.1458ZM16.268 12.8834H14.678L14.8547 10.7654H16.6213L16.268 12.8834Z" fill="white"/>
</g>
<defs>
<clipPath id="clip0">
<rect width="23.6849" height="24" fill="white"/>
</clipPath>
</defs>
</svg>
