<svg width="15" height="19" viewBox="0 0 15 19" fill="none" xmlns="http://www.w3.org/2000/svg">
<path d="M9.91272 15.7002C10.1127 15.7002 10.3127 15.5002 10.3127 15.3002V7.10019C10.3127 6.90019 10.1127 6.7002 9.91272 6.7002C9.71272 6.7002 9.5127 6.90019 9.5127 7.10019V15.3002C9.5127 15.5002 9.61272 15.7002 9.91272 15.7002Z" fill="#34495E"/>
<path d="M4.81275 15.7002C5.01275 15.7002 5.21266 15.5002 5.21266 15.3002V7.10019C5.21266 6.90019 5.01275 6.7002 4.81275 6.7002C4.61275 6.7002 4.41273 6.90019 4.41273 7.10019V15.3002C4.31273 15.5002 4.51275 15.7002 4.81275 15.7002Z" fill="#34495E"/>
<path d="M14.9872 3.60001C14.886 2.80001 14.1777 2.20001 13.3682 2.20001H11.1424V1.70001C11.1424 1.20001 10.94 0.8 10.6365 0.5C10.333 0.2 9.82711 0 9.4224 0H5.5776C5.07171 0 4.66705 0.2 4.36352 0.5C4.05999 0.8 3.85763 1.30001 3.85763 1.70001V2.20001H1.63165C0.822226 2.20001 0.114007 2.80001 0.0128296 3.60001C-0.0883481 4.40001 0.417491 5.19999 1.22691 5.39999V16.1C1.22691 16.7 1.42937 17.3 1.83408 17.7C2.23879 18.1 2.84585 18.4 3.35174 18.4H11.6483C12.2553 18.4 12.7612 18.2 13.1659 17.7C13.5706 17.3 13.773 16.7 13.773 16.1V5.39999C14.5824 5.19999 15.0883 4.50001 14.9872 3.60001ZM4.66698 1.70001C4.66698 1.50001 4.76823 1.30001 4.86941 1.10001C5.07176 0.900006 5.27409 0.899994 5.47645 0.899994H9.32112C9.52348 0.899994 9.72593 1.00001 9.92829 1.10001C10.1306 1.30001 10.1306 1.50001 10.1306 1.70001V2.20001H4.56582V1.70001H4.66698ZM12.8623 16.1C12.8623 16.9 12.2554 17.5 11.5471 17.5H3.25047C2.54222 17.5 1.93523 16.9 1.93523 16.1V5.5H12.8623V16.1ZM13.3682 4.60001H1.53049C1.12578 4.60001 0.721024 4.30002 0.721024 3.80002C0.721024 3.30002 1.02461 3 1.53049 3H13.3682C13.7729 3 14.1777 3.30002 14.1777 3.80002C14.1777 4.30002 13.7729 4.60001 13.3682 4.60001Z" fill="#34495E"/>
<path d="M7.31274 15.7002C7.51274 15.7002 7.71265 15.5002 7.71265 15.3002V7.10019C7.71265 6.90019 7.51274 6.7002 7.31274 6.7002C7.11274 6.7002 6.91272 6.90019 6.91272 7.10019V15.3002C6.91272 15.5002 7.11274 15.7002 7.31274 15.7002Z" fill="#34495E"/>
</svg>
