<svg width="185" height="32" viewBox="0 0 185 32" fill="none" xmlns="http://www.w3.org/2000/svg">
<g clip-path="url(#clip0)">
<path d="M35.3196 18.7C34.7178 21.8 34.2162 24 33.8149 25.2C33.4137 26.5 32.7115 27.6 31.7084 28.7C30.7052 29.8 29.5015 30.6 28.0971 31.1C26.6927 31.7 25.0877 32 23.282 32C21.5767 32 20.1723 31.7 18.9686 31.2C17.7648 30.7 16.862 29.9 16.2601 28.8C15.6582 27.7 15.3573 26.6 15.4576 25.3C15.5579 24 15.8589 21.8 16.5611 18.7L17.5642 13.5C18.1661 10.4 18.6676 8.20001 19.0689 7.00001C19.4701 5.70001 20.1723 4.60001 21.1755 3.50001C22.1786 2.40001 23.3824 1.60001 24.7867 1.10001C26.1911 0.500012 27.7961 0.200012 29.6018 0.200012C31.3071 0.200012 32.7115 0.500012 33.9153 1.00001C35.119 1.50001 36.0218 2.30001 36.6237 3.40001C37.2256 4.50001 37.5265 5.60001 37.4262 6.90001C37.3259 8.20001 37.025 10.4 36.3228 13.5L35.3196 18.7ZM29.2005 8.60001C29.5015 7.20001 29.6018 6.30001 29.5015 5.90001C29.4012 5.50001 29.1002 5.30001 28.5987 5.30001C28.1974 5.30001 27.7961 5.50001 27.4952 5.80001C27.1943 6.10001 26.8933 7.00001 26.5924 8.60001L23.7836 22.9C23.4827 24.7 23.282 25.8 23.3824 26.2C23.4827 26.6 23.7836 26.8 24.2852 26.8C24.8871 26.8 25.2883 26.6 25.4889 26.1C25.6896 25.6 25.9905 24.5 26.3918 22.7L29.2005 8.60001Z" fill="#454D56"/>
<path d="M39.8337 0.600006H48.0594C50.2663 0.600006 51.9716 0.800006 53.0751 1.10001C54.1785 1.40001 54.981 1.90001 55.4826 2.60001C55.9842 3.20001 56.1848 4.00001 56.2851 4.90001C56.2851 5.80001 56.1848 7.20001 55.7836 9.10001L55.282 11.8C54.8807 13.8 54.3792 15.2 53.8776 16.1C53.2757 17 52.3729 17.7 51.1691 18.2C49.9654 18.7 48.4607 18.9 46.7554 18.9H44.5485L42.1409 31.2H34.0156L39.8337 0.600006ZM46.8557 5.80001L45.351 13.6C45.5516 13.6 45.7522 13.6 45.9529 13.6C46.655 13.6 47.2569 13.4 47.6582 13.1C48.0594 12.7 48.2601 12 48.561 10.9L49.0626 8.40001C49.2632 7.40001 49.2632 6.70001 48.9622 6.40001C48.6613 6.00001 47.9591 5.80001 46.8557 5.80001Z" fill="#454D56"/>
<path d="M19.1692 0.6L17.8651 7.5H13.0501L8.43569 31.2H0.310307L4.92472 7.4H0.10968L1.41375 0.5H19.1692V0.6Z" fill="#454D56"/>
<path d="M73.539 28.9L70.5296 19.6L80.561 12.3H68.1221L64.3102 0L60.4983 12.4H48.0594L58.0908 19.7L54.2789 31.4L64.3102 24.1L72.3353 29.9C72.6362 29.4 73.0375 29.1 73.539 28.9Z" fill="#F05A28"/>
<path d="M183.683 9.90001H176.36L176.761 7.70001C176.962 6.70001 176.962 6.00001 176.862 5.70001C176.761 5.40001 176.46 5.30001 176.059 5.30001C175.558 5.30001 175.156 5.50001 174.855 5.90001C174.555 6.30001 174.354 6.90001 174.153 7.60001C173.953 8.60001 173.953 9.30001 174.153 9.80001C174.354 10.3 174.956 10.9 176.059 11.6C179.169 13.6 181.075 15.3 181.677 16.6C182.379 17.9 182.379 20 181.777 22.9C181.376 25 180.774 26.6 180.072 27.6C179.37 28.6 178.266 29.4 176.661 30.1C175.056 30.8 173.351 31.1 171.445 31.1C169.338 31.1 167.633 30.7 166.329 29.9C165.025 29.1 164.222 28.1 164.022 26.9C163.821 25.7 163.921 24 164.323 21.8L164.624 20H171.946L171.244 23.6C171.044 24.7 170.943 25.4 171.144 25.7C171.244 26 171.645 26.2 172.147 26.2C172.649 26.2 173.05 26 173.451 25.6C173.752 25.2 174.053 24.6 174.153 23.8C174.454 22.1 174.454 20.9 174.053 20.4C173.652 19.9 172.649 19 170.943 17.7C169.238 16.4 168.134 15.5 167.633 14.9C167.131 14.3 166.73 13.5 166.529 12.5C166.329 11.5 166.329 10.2 166.63 8.60001C167.031 6.30001 167.733 4.70001 168.536 3.60001C169.338 2.60001 170.442 1.70001 171.846 1.10001C173.25 0.500012 174.956 0.200012 176.761 0.200012C178.768 0.200012 180.473 0.500012 181.777 1.20001C183.081 1.80001 183.884 2.70001 184.185 3.60001C184.486 4.50001 184.385 6.20001 183.884 8.60001L183.683 9.90001Z" fill="#454D56"/>
<path d="M89.6895 9.90001H82.3666L82.7678 7.70001C82.9685 6.70001 82.9685 6.00001 82.8682 5.70001C82.7678 5.40001 82.4669 5.30001 82.0656 5.30001C81.5641 5.30001 81.1628 5.50001 80.8619 5.90001C80.5609 6.30001 80.3603 6.90001 80.1597 7.60001C79.9591 8.60001 79.9591 9.30001 80.1597 9.80001C80.3603 10.3 80.9622 10.9 82.0656 11.6C85.1754 13.6 87.0813 15.3 87.6832 16.6C88.3854 17.9 88.3854 20 87.7835 22.9C87.3823 25 86.7804 26.6 86.0782 27.6C85.376 28.6 84.2725 29.4 82.6675 30.1C81.0625 30.8 79.3572 31.1 77.4512 31.1C75.3447 31.1 73.6393 30.7 72.3353 29.9C71.0312 29.1 70.2287 28.1 70.028 26.9C69.8274 25.7 69.9277 24 70.329 21.8L70.7302 19.9H78.0531L77.3509 23.5C77.1503 24.6 77.05 25.3 77.2506 25.6C77.3509 25.9 77.7522 26.1 78.2537 26.1C78.7553 26.1 79.1566 25.9 79.5578 25.5C79.8588 25.1 80.1597 24.5 80.26 23.7C80.561 22 80.561 20.8 80.1597 20.3C79.7584 19.8 78.7553 18.9 77.05 17.6C75.3447 16.3 74.2412 15.4 73.7396 14.8C73.2381 14.2 72.8368 13.4 72.6362 12.4C72.4356 11.4 72.4356 10.1 72.7365 8.50001C73.1378 6.20001 73.84 4.60001 74.5421 3.50001C75.3447 2.50001 76.4481 1.60001 77.8525 1.00001C79.2569 0.400006 80.9622 0.100006 82.7678 0.100006C84.7741 0.100006 86.4794 0.400006 87.7835 1.10001C89.0876 1.70001 89.8901 2.60001 90.191 3.50001C90.492 4.40001 90.3917 6.10001 89.8901 8.50001L89.6895 9.90001Z" fill="#454D56"/>
<path d="M92.7992 0.600006H101.025C103.232 0.600006 104.937 0.800006 106.041 1.10001C107.144 1.40001 107.947 1.90001 108.448 2.60001C108.95 3.20001 109.15 4.00001 109.251 4.90001C109.251 5.80001 109.15 7.20001 108.749 9.10001L108.247 11.8C107.846 13.8 107.345 15.2 106.843 16.1C106.241 17 105.338 17.7 104.135 18.2C102.931 18.7 101.426 18.9 99.7208 18.9H97.5139L95.1064 31.2H86.981L92.7992 0.600006ZM99.9214 5.80001L98.4167 13.6C98.6174 13.6 98.818 13.6 99.0186 13.6C99.7208 13.6 100.323 13.4 100.724 13.1C101.125 12.7 101.326 12 101.627 10.9L102.128 8.40001C102.329 7.40001 102.329 6.70001 102.028 6.40001C101.627 6.00001 100.925 5.80001 99.9214 5.80001Z" fill="#454D56"/>
<path d="M126.605 18.7C126.003 21.8 125.501 24 125.1 25.2C124.699 26.5 123.997 27.6 122.994 28.7C121.99 29.8 120.787 30.6 119.382 31.1C117.978 31.7 116.373 32 114.567 32C112.862 32 111.457 31.7 110.254 31.2C109.05 30.7 108.147 29.9 107.545 28.8C106.943 27.7 106.642 26.6 106.743 25.3C106.843 24 107.144 21.8 107.846 18.7L108.849 13.5C109.451 10.4 109.953 8.20001 110.354 7.00001C110.755 5.70001 111.457 4.60001 112.461 3.50001C113.464 2.40001 114.668 1.60001 116.072 1.10001C117.476 0.500012 119.081 0.200012 120.887 0.200012C122.592 0.200012 123.997 0.500012 125.2 1.00001C126.404 1.50001 127.307 2.30001 127.909 3.40001C128.511 4.50001 128.812 5.60001 128.711 6.90001C128.611 8.20001 128.31 10.4 127.608 13.5L126.605 18.7ZM120.385 8.60001C120.686 7.20001 120.787 6.30001 120.686 5.90001C120.586 5.50001 120.285 5.30001 119.784 5.30001C119.382 5.30001 118.981 5.50001 118.68 5.80001C118.379 6.10001 118.078 7.10001 117.777 8.60001L114.968 22.9C114.668 24.7 114.467 25.8 114.567 26.2C114.668 26.6 114.968 26.8 115.47 26.8C116.072 26.8 116.473 26.6 116.674 26.1C116.874 25.6 117.175 24.5 117.577 22.7L120.385 8.60001Z" fill="#454D56"/>
<path d="M131.219 0.600006H136.937C140.749 0.600006 143.357 0.700006 144.661 1.00001C145.965 1.30001 146.968 2.00001 147.57 3.20001C148.172 4.40001 148.272 6.30001 147.771 8.90001C147.269 11.3 146.667 12.9 145.965 13.7C145.163 14.5 143.959 15 142.153 15.2C143.658 15.6 144.661 16.1 145.062 16.8C145.464 17.5 145.765 18.1 145.765 18.6C145.765 19.1 145.564 20.7 145.062 23.1L143.457 31.2H135.934L137.94 21C138.241 19.4 138.341 18.3 138.141 18C137.94 17.6 137.338 17.4 136.135 17.4L133.426 31.2H125.301L131.219 0.600006ZM138.241 5.80001L136.937 12.6C137.84 12.6 138.542 12.5 138.943 12.2C139.345 12 139.746 11.2 139.946 9.80001L140.247 8.10001C140.448 7.10001 140.348 6.50001 140.047 6.20001C139.846 6.00001 139.244 5.80001 138.241 5.80001Z" fill="#454D56"/>
<path d="M167.834 0.600006L166.529 7.50001H161.614L157 31.2H148.874L153.489 7.50001H148.674L149.978 0.600006H167.834Z" fill="#454D56"/>
</g>
<defs>
<clipPath id="clip0">
<rect width="184.276" height="32" fill="white" transform="translate(0.10968)"/>
</clipPath>
</defs>
</svg>
